# xmcd
#
# Track frame offsets:
#	150
#	14367
#	39831
#	54298
#	66780
#	79310
#	94183
#	108269
#	117737
#	130415
#	144001
#	161274
#	175900
#	187756
#	200827
#
# Disc length: 2846 seconds
#
# Revision: 0
# Processed by: cddbd v1.5.1PL0 Copyright (c) Steve Scherf et al.
# Submitted via: audiograbber 1.83.01
#
DISCID=c30b1c0f
DTITLE=V - CB60020
DYEAR=1900
DGENRE=Karaoke Country
TTITLE0=George Jones - He Stopped Loving Her Today
TTITLE1=David Allan Coe - You Never Even Called Me By My Name
TTITLE2=Loretta Lynn - Coal Miner's Daughter
TTITLE3=Conway Twitty - Hello Darlin'
TTITLE4=Johnny Cash - Folsom Prison Blues
TTITLE5=Jeannie Pruett - Satin Sheets
TTITLE6=Don Williams - Tulsa Time
TTITLE7=Charley Pride - Kiss An Angel Good Morning
TTITLE8=Tammy Wynette - Stand By Your Man
TTITLE9=Faron Young - It's Four In The Morning
TTITLE10=Kenny Rogers - Gambler, The
TTITLE11=Dolly Parton - Coat Of Many Colors
TTITLE12=Roger Miller - King Of The Road
TTITLE13=Merle Haggard - Okie From Muskogee
TTITLE14=Kitty Wells - It Wasn't God Who Make Honky Tonk Angels
EXTD=Chartbuster
EXTT0=
EXTT1=
EXTT2=
EXTT3=
EXTT4=
EXTT5=
EXTT6=
EXTT7=
EXTT8=
EXTT9=
EXTT10=
EXTT11=
EXTT12=
EXTT13=
EXTT14=
PLAYORDER=
